<svg width="125" height="125" viewBox="0 0 125 125" fill="none" xmlns="http://www.w3.org/2000/svg">
    <g filter="url(#filter0_d_58_31)">
        <path
            d="M39.0638 15.625C43.5777 15.625 47.8746 16.5799 51.9544 18.4896C56.0343 20.3993 59.5499 23.0903 62.5013 26.5625C65.4527 23.0903 68.9683 20.3993 73.0482 18.4896C77.128 16.5799 81.4249 15.625 85.9388 15.625C94.0985 15.625 100.913 18.3594 106.382 23.8281C111.85 29.2969 114.585 36.1111 114.585 44.2708C114.585 44.7049 114.563 45.1389 114.52 45.5729C114.476 46.0069 114.454 46.441 114.454 46.875H104.038C104.125 46.441 104.168 46.0069 104.168 45.5729V44.2708C104.168 39.0625 102.432 34.7222 98.9596 31.25C95.4874 27.7778 91.1471 26.0417 85.9388 26.0417C81.8589 26.0417 78.0829 27.1918 74.6107 29.4922C71.1385 31.7925 68.7513 34.7222 67.4492 38.2812H57.5534C56.2513 34.7222 53.8641 31.7925 50.3919 29.4922C46.9197 27.1918 43.1437 26.0417 39.0638 26.0417C33.8555 26.0417 29.5152 27.7778 26.043 31.25C22.5707 34.7222 20.8346 39.0625 20.8346 44.2708V45.5729C20.8346 46.0069 20.878 46.441 20.9648 46.875H10.5482C10.5482 46.441 10.5265 46.0069 10.4831 45.5729C10.4397 45.1389 10.418 44.7049 10.418 44.2708C10.418 36.1111 13.1523 29.2969 18.6211 23.8281C24.0898 18.3594 30.9041 15.625 39.0638 15.625ZM27.6055 78.125H42.1888C44.9666 80.816 48.0048 83.724 51.3034 86.849C54.602 89.974 58.3346 93.4028 62.5013 97.1354C66.668 93.4028 70.4006 89.974 73.6992 86.849C76.9978 83.724 80.036 80.816 82.8138 78.125H97.5273C94.2287 81.7708 90.3225 85.7205 85.8086 89.974C81.2947 94.2274 76.043 99.0451 70.0534 104.427L62.5013 111.198L54.9492 104.427C48.9596 99.0451 43.7296 94.2274 39.2591 89.974C34.7886 85.7205 30.9041 81.7708 27.6055 78.125Z"
            fill="#ffffff" />
        <path
            d="M39.0677 15.6416C43.5816 15.6416 47.8784 16.5965 51.9583 18.5062C56.0382 20.4158 59.5539 23.1069 62.5052 26.5792C65.4566 23.1069 68.9723 20.4158 73.052 18.5062C77.1319 16.5965 81.4289 15.6416 85.9427 15.6416C94.1025 15.6416 100.917 18.376 106.385 23.8447C111.854 29.3135 114.589 36.1277 114.589 44.2875C114.589 44.7215 114.567 45.1555 114.523 45.5895C114.48 46.0235 114.458 46.4576 114.458 46.8916H104.042C104.128 46.4576 104.172 46.0235 104.172 45.5895V44.2875C104.172 39.0792 102.436 34.7388 98.9635 31.2666C95.4913 27.7944 91.151 26.0583 85.9427 26.0583C81.8628 26.0583 78.0868 27.2085 74.6146 29.5088C71.1424 31.8091 68.7552 34.7388 67.4531 38.2979H57.5573C56.2552 34.7388 53.868 31.8091 50.3959 29.5088C46.9237 27.2085 43.1476 26.0583 39.0677 26.0583C33.8594 26.0583 29.5191 27.7944 26.0468 31.2666C22.5746 34.7388 20.8385 39.0792 20.8385 44.2875V45.5895C20.8385 46.0235 20.8819 46.4576 20.9687 46.8916H10.5521C10.5521 46.4576 10.5304 46.0235 10.487 45.5895C10.4436 45.1555 10.4219 44.7215 10.4219 44.2875C10.4219 36.1277 13.1562 29.3135 18.625 23.8447C24.0937 18.376 30.908 15.6416 39.0677 15.6416Z"
            fill="#ffffff" />
        <path
            d="M58.3437 83.6666C59.4722 83.6666 60.4488 83.3411 61.2735 82.69C62.0982 82.039 62.684 81.1927 63.0313 80.1509L70.0624 58.927L74.6198 65.6979C75.0538 66.3923 75.6615 66.9566 76.4426 67.3906C77.2239 67.8246 78.0486 68.0416 78.9167 68.0416H120.583V57.625H81.9115L72.9271 44.3437C72.4063 43.5624 71.7334 42.9765 70.9089 42.5859C70.0842 42.1953 69.1945 42 68.2396 42C67.1111 42 66.1345 42.3255 65.31 42.9765C64.4853 43.6276 63.8992 44.4739 63.5521 45.5156L56.5209 66.6094L52.0937 59.9687C51.6597 59.2742 51.0521 58.71 50.2709 58.2759C49.4896 57.842 48.6649 57.625 47.7969 57.625H6V68.0416H44.6719L53.6563 81.3229C54.1771 82.1041 54.8498 82.69 55.6745 83.0807C56.4991 83.4713 57.3889 83.6666 58.3437 83.6666Z"
            fill="#ffffff" />
    </g>
    <defs>
        <filter id="filter0_d_58_31" x="-4" y="0" width="133" height="133"
            filterUnits="userSpaceOnUse" color-interpolation-filters="sRGB">
            <feFlood flood-opacity="0" result="BackgroundImageFix" />
            <feColorMatrix in="SourceAlpha" type="matrix"
                values="0 0 0 0 0 0 0 0 0 0 0 0 0 0 0 0 0 0 127 0" result="hardAlpha" />
            <feOffset dy="4" />
            <feGaussianBlur stdDeviation="2.5" />
            <feComposite in2="hardAlpha" operator="out" />
            <feColorMatrix type="matrix" values="0 0 0 0 0 0 0 0 0 0 0 0 0 0 0 0 0 0 0.25 0" />
            <feBlend mode="normal" in2="BackgroundImageFix" result="effect1_dropShadow_58_31" />
            <feBlend mode="normal" in="SourceGraphic" in2="effect1_dropShadow_58_31" result="shape" />
        </filter>
    </defs>
</svg>