<?xml version="1.0" encoding="utf-8"?>
<!-- Generator: Adobe Illustrator 27.5.0, SVG Export Plug-In . SVG Version: 6.00 Build 0)  -->
<svg version="1.1" xmlns="http://www.w3.org/2000/svg" xmlns:xlink="http://www.w3.org/1999/xlink" x="0px" y="0px"
	 viewBox="0 0 3710 3710" style="enable-background:new 0 0 3710 3710;" xml:space="preserve">
<g id="Background">
	<g>
		<g>
			<rect style="fill:transparent;" width="3710" height="3710"/>
		</g>
	</g>
</g>
<g id="Illustration">
	<g>
		<path style="fill:#F4F7FA;" d="M1893.626,484.875C1201.323,463.851,601.644,980.439,511.042,1658.266
			c-99.059,741.112,446.151,1407.934,1117.009,1514.736c834.435,132.844,1643.79-635.671,1571.118-1469.394
			C3144.418,1075.471,2597.365,506.245,1893.626,484.875z"/>
		<g>
			<g>
				<g>
					<defs>
						<path id="SVGID_1_" d="M2107.671,2193.111c-40.606-117.321-82.905-296.742-40.012-497.394
							c49.251-230.404,165.816-278.222,267.182-525.291c162.585-396.286,31.388-684.41,124.365-713.221
							c96.77-29.986,340.633,250.599,339.014,554.824c-1.5,281.738-212.98,479.949-233.86,498.954
							c-161.052,146.591-289.395,118.003-391.125,256.439C2075.461,1900.475,2086.091,2073.75,2107.671,2193.111z"/>
					</defs>
					
						<linearGradient id="SVGID_00000121976089514758027880000013700265922486920099_" gradientUnits="userSpaceOnUse" x1="2672.6536" y1="740.2705" x2="2151.1348" y2="1580.0682">
						<stop  offset="0" style="stop-color:#FCB148"/>
						<stop  offset="0.0521" style="stop-color:#FDBA46"/>
						<stop  offset="0.1424" style="stop-color:#FFC244"/>
						<stop  offset="0.3183" style="stop-color:#FFC444"/>
						<stop  offset="0.4849" style="stop-color:#FDB946"/>
						<stop  offset="0.7754" style="stop-color:#F99C4D"/>
						<stop  offset="0.8658" style="stop-color:#F8924F"/>
						<stop  offset="1" style="stop-color:#F8924F"/>
					</linearGradient>
					
						<use xlink:href="#SVGID_1_"  style="overflow:visible;fill:url(#SVGID_00000121976089514758027880000013700265922486920099_);"/>
					<clipPath id="SVGID_00000167395633306905465940000008457141073164950966_">
						<use xlink:href="#SVGID_1_"  style="overflow:visible;"/>
					</clipPath>
					<path style="opacity:0.5;clip-path:url(#SVGID_00000167395633306905465940000008457141073164950966_);fill:#FFFFFF;" d="
						M2111.635,2456.6c-79.763-319.87-64.941-595.45,44.049-819.075c65.848-135.102,152.183-223.635,228.355-301.746
						c92.256-94.602,171.931-176.306,203.183-315.394c44.229-196.844-31.197-421.872-224.183-668.837l3.148-2.459
						c193.759,247.954,269.436,474.103,224.932,672.17c-31.499,140.194-111.539,222.272-204.218,317.309
						c-75.964,77.895-162.061,166.184-227.626,300.709c-108.569,222.76-123.293,497.422-43.763,816.357L2111.635,2456.6z"/>
					<path style="opacity:0.5;clip-path:url(#SVGID_00000167395633306905465940000008457141073164950966_);fill:#FFFFFF;" d="
						M2575.111,1069.564l-0.566-3.973c-9.108-64.063-32.131-126.474-66.581-180.487c-54.711-85.78-126.632-134.698-177.332-160.632
						l1.817-3.557c51.141,26.159,123.689,75.505,178.88,162.04c34.042,53.373,57.024,114.868,66.587,178.096
						c49.487-50.62,88.052-111.978,111.652-177.696c40.735-113.431,30.686-216.008,15.081-282.086l3.889-0.917
						c15.727,66.603,25.855,169.999-15.21,284.352c-24.242,67.503-64.143,130.443-115.391,182.014L2575.111,1069.564z"/>
					<path style="opacity:0.5;clip-path:url(#SVGID_00000167395633306905465940000008457141073164950966_);fill:#FFFFFF;" d="
						M2339.108,1388.321l2.559-3.569c24.925-34.762,65.908-107.818,60.336-206.52c-5.107-90.46-47.31-154.97-72.012-185.371
						l3.101-2.52c25.004,30.777,67.728,96.083,72.898,187.664c5.457,96.658-33.178,169.014-58.55,205.494
						c99.301-10.14,194.773-43.164,276.373-95.631c186.974-120.222,253.104-308.83,272.857-384.341l3.865,1.01
						c-19.872,75.964-86.406,265.709-274.561,386.689c-83.322,53.574-181.008,87.004-282.495,96.676L2339.108,1388.321z"/>
					<path style="opacity:0.5;clip-path:url(#SVGID_00000167395633306905465940000008457141073164950966_);fill:#FFFFFF;" d="
						M2138.418,1684.021l-0.1-1.987c-2.29-46.39-2.29-93.391,0-139.699c4.934-99.775,20.613-199.707,46.596-297.021l3.858,1.03
						c-25.912,97.042-41.543,196.694-46.464,296.19c-2.25,45.512-2.284,91.7-0.098,137.315
						c110.111-5.258,215.634-30.892,313.667-76.205c221.728-102.486,342.892-279.379,395.382-375.701l3.507,1.911
						c-52.724,96.756-174.439,274.448-397.211,377.417c-99.098,45.802-205.802,71.595-317.149,76.66L2138.418,1684.021z"/>
				</g>
			</g>
			<g>
				<g>
					<defs>
						<path id="SVGID_00000164507014404367234210000004029730154029067403_" d="M2112.766,2140.992
							c-23.302-83.523-45.815-215.473,10.509-341.783c98.263-220.36,325.876-175.533,512.474-420.451
							c150.499-197.538,81.818-330.896,257.211-470.364c125.875-100.093,291.357-134.866,315.037-98.491
							c25.458,39.107-140.36,118.401-215.796,314.407c-98.162,255.058,74.629,401.392-29.907,561.3
							c-79.51,121.626-209.12,82.323-491.704,219.361C2306.298,1984.641,2186.507,2077.263,2112.766,2140.992z"/>
					</defs>
					
						<linearGradient id="SVGID_00000006681897467456679950000007851734140363550877_" gradientUnits="userSpaceOnUse" x1="2828.2249" y1="899.3093" x2="2411.0579" y2="2143.9749">
						<stop  offset="0" style="stop-color:#AA80F9"/>
						<stop  offset="0.9964" style="stop-color:#6165D7"/>
					</linearGradient>
					
						<use xlink:href="#SVGID_00000164507014404367234210000004029730154029067403_"  style="overflow:visible;fill:url(#SVGID_00000006681897467456679950000007851734140363550877_);"/>
					<clipPath id="SVGID_00000109015333095395878730000017444486591331417506_">
						<use xlink:href="#SVGID_00000164507014404367234210000004029730154029067403_"  style="overflow:visible;"/>
					</clipPath>
					<path style="opacity:0.5;clip-path:url(#SVGID_00000109015333095395878730000017444486591331417506_);fill:#FFFFFF;" d="
						M2074.113,2431.729l-3.994-0.008c0.322-305.048,75.449-524.026,223.296-650.849c70.321-60.318,138.459-85.007,204.353-108.88
						c80.994-29.346,157.495-57.066,227.913-148.39c62.945-81.635,74.684-154.189,87.111-231.005
						c11.45-70.774,23.291-143.959,74.776-232.082c77.21-132.155,207.257-234.009,386.529-302.733l1.431,3.729
						c-178.404,68.391-307.772,169.669-384.512,301.021c-51.109,87.48-62.889,160.29-74.28,230.703
						c-12.511,77.329-24.328,150.371-87.892,232.806c-71.127,92.246-148.159,120.157-229.714,149.706
						c-65.557,23.752-133.347,48.314-203.113,108.161C2149.092,1909.934,2074.433,2127.895,2074.113,2431.729z"/>
					<path style="opacity:0.5;clip-path:url(#SVGID_00000109015333095395878730000017444486591331417506_);fill:#FFFFFF;" d="
						M2826.458,1234.808l-1.88-5.234c-17.385-48.398-25.327-98.429-23.601-148.703c4.059-118.497,61.565-205.677,95.482-247.097
						l3.089,2.531c-33.598,41.03-90.562,127.379-94.581,244.703c-1.644,47.954,5.597,95.69,21.527,141.975
						c27.179-73.003,67.751-125.768,120.643-156.869c55.57-32.671,106.186-31.246,159.785-29.736
						c33.13,0.927,67.39,1.902,103.283-5.835c109.889-23.684,206.535-124.383,287.256-299.297l3.627,1.673
						c-81.276,176.115-178.859,277.565-290.041,301.528c-36.365,7.836-70.877,6.857-104.239,5.923
						c-53.003-1.496-103.067-2.906-157.647,29.188c-53.323,31.355-93.975,85.191-120.824,160.017L2826.458,1234.808z"/>
					<path style="opacity:0.5;clip-path:url(#SVGID_00000109015333095395878730000017444486591331417506_);fill:#FFFFFF;" d="
						M2702.416,1554.914l-0.318-2.081c-6.931-45.346-11.185-91.535-12.644-137.281c-3.121-97.745,6.326-196.23,28.08-292.722
						l3.897,0.878c-21.68,96.163-31.095,194.311-27.987,291.716c1.433,44.888,5.566,90.199,12.285,134.718
						c66.121-14.032,127.49-40.704,182.424-79.293c83.534-58.676,131.798-131.471,157.577-182.206l3.561,1.81
						c-25.986,51.14-74.635,124.516-158.841,183.664c-55.958,39.304-118.527,66.345-185.974,80.37L2702.416,1554.914z"/>
					<path style="opacity:0.5;clip-path:url(#SVGID_00000109015333095395878730000017444486591331417506_);fill:#FFFFFF;" d="
						M2746.835,1755.753c-16.511,0-33.338-0.558-50.475-1.732c-82.934-5.691-164.386-25.393-242.093-58.557l-2.811-1.199
						l2.227-2.093c39.961-37.551,71.037-84.307,89.873-135.215c15.448-41.754,22.773-85.66,21.773-130.499l3.995-0.09
						c1.012,45.346-6.397,89.748-22.023,131.974c-18.697,50.539-49.323,97.031-88.664,134.638
						c76.449,32.271,156.506,51.462,237.995,57.056c181.472,12.455,328.631-45.012,420.127-95.41l1.927,3.499
						C3035.361,1704.021,2906.09,1755.753,2746.835,1755.753z"/>
					<path style="opacity:0.5;clip-path:url(#SVGID_00000109015333095395878730000017444486591331417506_);fill:#FFFFFF;" d="
						M2574.98,1932.628c-21.921-26.653-69.832-73.928-144.417-91.051c-130.701-30.007-232.915,58.173-244.137,68.326l-3.628,3.281
						l0.295-4.883c2.826-46.986,11.649-93.286,26.223-137.609c24.677-75.045,64.98-143.145,119.789-202.412l2.933,2.711
						c-54.417,58.844-94.431,126.453-118.927,200.95c-13.972,42.489-22.619,86.811-25.722,131.812
						c22.147-18.855,120.514-94.433,244.067-66.068c75.739,17.389,124.364,65.362,146.609,92.409L2574.98,1932.628z"/>
				</g>
			</g>
			<g>
				<g>
					<defs>
						<path id="SVGID_00000021806868139598830900000014320547316948397474_" d="M2101.953,2069.067
							c46.746-40.181,118.905-95.624,215.807-144.978c225.661-114.931,340.004-71.802,463.294-178.487
							c151.571-131.158,122.111-320.394,171.863-319.186c73.148,1.777,220.174,412.862,40.939,584.69
							c-114.79,110.047-322.357,82.607-364.726,75.873c-100.311-15.945-127.526-51.411-229.182-64.664
							C2276.324,2006.198,2170.41,2039.594,2101.953,2069.067z"/>
					</defs>
					
						<linearGradient id="SVGID_00000075876305931930089700000017538627113602588298_" gradientUnits="userSpaceOnUse" x1="3103.8145" y1="1583.7084" x2="1877.9237" y2="2590.6914">
						<stop  offset="0.0036" style="stop-color:#E38DDD"/>
						<stop  offset="1" style="stop-color:#9571F6"/>
					</linearGradient>
					
						<use xlink:href="#SVGID_00000021806868139598830900000014320547316948397474_"  style="overflow:visible;fill:url(#SVGID_00000075876305931930089700000017538627113602588298_);"/>
					<clipPath id="SVGID_00000148643963608039970720000010419930068548421257_">
						<use xlink:href="#SVGID_00000021806868139598830900000014320547316948397474_"  style="overflow:visible;"/>
					</clipPath>
					<g style="clip-path:url(#SVGID_00000148643963608039970720000010419930068548421257_);">
						<path style="opacity:0.5;fill:#FFFFFF;" d="M2046.409,2104.444l-2.444-3.16c133.829-103.509,267.505-154.962,397.379-152.817
							c70.009,1.135,124.415,17.194,172.415,31.357c63.17,18.645,117.731,34.735,183.707,7.595
							c84.241-34.669,148.59-124.311,181.195-252.418c52.236-205.258-63.406-376.604-100.093-424.23l3.164-2.438
							c36.965,47.987,153.481,220.648,100.798,427.651c-32.922,129.363-98.107,219.969-183.543,255.125
							c-67.281,27.69-122.464,11.401-186.36-7.454c-47.755-14.093-101.883-30.065-171.35-31.193
							C2312.405,1950.309,2179.501,2001.5,2046.409,2104.444z"/>
						<path style="opacity:0.5;fill:#FFFFFF;" d="M2935.005,1854.137l0.747-3.943c11.136-58.825,11.136-118.359,0-176.953
							c-12.269-64.564-38.61-127.385-76.176-181.665l3.284-2.274c37.88,54.737,64.443,118.084,76.816,183.194
							c10.978,57.767,11.224,116.448,0.735,174.469c31.579-16.238,74.26-45.738,105.404-95.989
							c66.403-107.141,27.913-225.055,19.521-247.604l3.744-1.393c8.503,22.856,47.515,142.377-19.872,251.104
							c-32.833,52.978-78.271,83.226-110.606,99.273L2935.005,1854.137z"/>
						<path style="opacity:0.5;fill:#FFFFFF;" d="M2850.6,2077.975c-41.313,0-85.856-5.683-131.734-20.544
							c-55.806-18.075-107.233-47.4-152.852-87.151l-4.567-3.982l6.04,0.487c87.632,7.01,169.729-32.024,214.19-101.922
							c47.487-74.661,31.8-154.88,25.861-177.687l3.865-1.006c6.042,23.201,21.997,104.812-26.356,180.838
							c-44.237,69.547-124.994,109.138-211.864,104.169c44.07,37.414,93.469,65.143,146.915,82.454
							c152.152,49.28,289.608-3.273,341.64-28.162l1.724,3.604C3026.674,2046.665,2947.535,2077.975,2850.6,2077.975z"/>
						<path style="opacity:0.5;fill:#FFFFFF;" d="M2628.359,2175.786c-21.412-45.82-72.361-129.757-173.016-177.145
							c-42.362-19.94-88.178-30.955-136.177-32.737l-0.119-3.987c80.367-7.84,138.87-30.577,173.88-67.581
							c3.152-3.331,7.224-7.942,13.391-14.92c8.293-9.388,20.827-23.575,40.071-44.743c19.212-21.133,38.65-42.122,57.775-62.386
							l2.906,2.738c-19.109,20.252-38.53,41.221-57.724,62.331c-19.226,21.149-31.749,35.324-40.034,44.704
							c-6.194,7.01-10.283,11.639-13.482,15.021c-32.451,34.298-84.459,56.551-154.781,66.275
							c40.656,3.912,79.587,14.533,115.995,31.672c101.791,47.919,153.294,132.76,174.935,179.064L2628.359,2175.786z"/>
					</g>
				</g>
			</g>
		</g>
		<g>
			
				<linearGradient id="SVGID_00000042704007957057469650000004191096273221678257_" gradientUnits="userSpaceOnUse" x1="737.3864" y1="2301.0886" x2="2965.7073" y2="2301.0886">
				<stop  offset="0" style="stop-color:#AA80F9"/>
				<stop  offset="0.9964" style="stop-color:#6165D7"/>
			</linearGradient>
			<polygon style="fill:url(#SVGID_00000042704007957057469650000004191096273221678257_);" points="737.386,2121.004 
				1793.322,2185.349 2965.707,2117.789 1809.399,2484.388 			"/>
			<g>
				
					<linearGradient id="SVGID_00000122707673547204861780000009031934239501276600_" gradientUnits="userSpaceOnUse" x1="1019.6956" y1="3106.0947" x2="1168.7841" y2="2766.9907">
					<stop  offset="0" style="stop-color:#FFC444"/>
					<stop  offset="0.9964" style="stop-color:#F36F56"/>
				</linearGradient>
				<path style="fill:url(#SVGID_00000122707673547204861780000009031934239501276600_);" d="M1592.163,3228.093L732.931,2893.01
					c-84.463-22.732-150.086-106.419-150.086-187.576v-0.892c0-81.156,65.623-135.606,150.086-120.707l920.076,256.563
					L1592.163,3228.093z"/>
				<g>
					
						<linearGradient id="SVGID_00000109001477140401121290000017428101549465084858_" gradientUnits="userSpaceOnUse" x1="1477.9152" y1="2926.6477" x2="2967.1443" y2="2926.6477">
						<stop  offset="0.494" style="stop-color:#EAEDF3"/>
						<stop  offset="1" style="stop-color:#FFFFFF"/>
					</linearGradient>
					<path style="fill:url(#SVGID_00000109001477140401121290000017428101549465084858_);" d="M2967.144,2949.22l-1334.572,260.696
						c-84.876,9.479-154.657-49.71-154.657-132.336v-56.052c0-82.625,69.781-155.162,154.657-161.917l1334.572-217.228
						C2907.179,2754.015,2893.344,2858.452,2967.144,2949.22z"/>
					
						<linearGradient id="SVGID_00000090294293189513305040000000704524338920111264_" gradientUnits="userSpaceOnUse" x1="1441.4808" y1="2927.3621" x2="2993.6968" y2="2927.3621">
						<stop  offset="0" style="stop-color:#FFC444"/>
						<stop  offset="0.9964" style="stop-color:#F36F56"/>
					</linearGradient>
					<path style="fill:url(#SVGID_00000090294293189513305040000000704524338920111264_);" d="M2978.938,2964.247l-1335.011,263.064
						c-110.707,12.552-202.446-64.988-202.446-173.085v-1.188c0-108.096,91.739-203.194,202.446-211.829l1335.011-215.088
						c8.156-0.636,14.759,6.155,14.759,15.168c0,9.013-6.602,16.857-14.759,17.521l-1335.011,219.726
						c-89.062,7.251-162.599,83.871-162.599,170.691v1.184c0,86.819,73.537,149.366,162.599,139.573l1335.011-258.426
						c8.156-0.897,14.759,5.684,14.759,14.696S2987.094,2963.323,2978.938,2964.247z"/>
				</g>
			</g>
			<g>
				
					<linearGradient id="SVGID_00000177462300228195983330000009093956173712059779_" gradientUnits="userSpaceOnUse" x1="1242.5386" y1="2101.9976" x2="970.6783" y2="3017.7395">
					<stop  offset="0" style="stop-color:#AA80F9"/>
					<stop  offset="0.9964" style="stop-color:#6165D7"/>
				</linearGradient>
				<path style="fill:url(#SVGID_00000177462300228195983330000009093956173712059779_);" d="M1627.397,2841.308l-894.466-257.472
					c-84.463-14.899-150.086-125.613-150.086-247.47v-1.339c0-121.857,65.623-218.558,150.086-215.42l947.601,143.797
					L1627.397,2841.308z"/>
				<g>
					
						<linearGradient id="SVGID_00000145052720217155456980000011178966821799791003_" gradientUnits="userSpaceOnUse" x1="1477.9152" y1="2475.3691" x2="2967.1443" y2="2475.3691">
						<stop  offset="0.494" style="stop-color:#EAEDF3"/>
						<stop  offset="1" style="stop-color:#FFFFFF"/>
					</linearGradient>
					<path style="fill:url(#SVGID_00000145052720217155456980000011178966821799791003_);" d="M2967.144,2602.47L1708.52,2808.315
						c-126.159,9.515-230.605-83.18-230.605-207.243v-84.163c0-124.063,104.446-227.484,230.605-230.923l1258.624-144.234
						C2906.986,2309.026,2893.54,2465.661,2967.144,2602.47z"/>
					
						<linearGradient id="SVGID_00000107582361256126984960000008243383057367871143_" gradientUnits="userSpaceOnUse" x1="1441.4808" y1="2480.0256" x2="2993.6968" y2="2480.0256">
						<stop  offset="0" style="stop-color:#AA80F9"/>
						<stop  offset="0.9964" style="stop-color:#6165D7"/>
					</linearGradient>
					<path style="fill:url(#SVGID_00000107582361256126984960000008243383057367871143_);" d="M2978.938,2626.122L1643.927,2841.21
						c-110.707,8.635-202.446-116.257-202.446-278.565v-1.783c0-162.308,91.739-296.635,202.446-299.386l1335.011-143.052
						c8.156-0.203,14.759,10.604,14.759,24.137c0,13.533-6.602,24.702-14.759,24.946l-1335.011,150.016
						c-89.062,2.671-162.599,110.933-162.599,241.293v1.778c0,130.36,73.537,231.059,162.599,224.57l1335.011-208.124
						c8.156-0.594,14.759,9.896,14.759,23.428S2987.094,2625.486,2978.938,2626.122z"/>
				</g>
			</g>
			<path style="opacity:0.5;fill:#FFFFFF;" d="M1356.399,2719.185l-207.357-56.127c-43.62-119.06-40.341-228.429,0-359.148
				l207.357,36.761C1318.111,2478.227,1323.907,2602.823,1356.399,2719.185z"/>
		</g>
		<g>
			
				<linearGradient id="SVGID_00000183953307553575595450000016298205358643730353_" gradientUnits="userSpaceOnUse" x1="1686.1292" y1="2139.7488" x2="1525.7465" y2="2207.1096">
				<stop  offset="0" style="stop-color:#40447E"/>
				<stop  offset="0.9964" style="stop-color:#3C3B6B"/>
			</linearGradient>
			<path style="fill:url(#SVGID_00000183953307553575595450000016298205358643730353_);" d="M3004.023,2050.006L723.33,2028.009
				v65.086c0,17.665,9.948,32.687,23.42,35.364l644.912,128.166c7.654,1.521,15.415,1.925,23.138,1.203l1564.439-146.13
				c13.967-1.304,24.784-16.372,24.784-34.522V2050.006z"/>
			<g>
				
					<linearGradient id="SVGID_00000003092753958605547010000011061381723595566006_" gradientUnits="userSpaceOnUse" x1="1470.4084" y1="1364.6129" x2="1292.2668" y2="1439.4324">
					<stop  offset="0" style="stop-color:#40447E"/>
					<stop  offset="0.9964" style="stop-color:#3C3B6B"/>
				</linearGradient>
				<path style="fill:url(#SVGID_00000003092753958605547010000011061381723595566006_);" d="M2269.838,1944.499L748.431,2063.565
					c-27.225,2.13-49.36-20.509-49.36-50.572V808.525c0-30.064,22.135-54.436,49.36-54.436h1521.407
					c22.429,0,40.563,22.031,40.563,49.209v1088.817C2310.402,1919.292,2292.267,1942.743,2269.838,1944.499z"/>
				
					<linearGradient id="SVGID_00000000198581993509775070000000422594697457512116_" gradientUnits="userSpaceOnUse" x1="723.3295" y1="1408.8969" x2="2334.6609" y2="1408.8969">
					<stop  offset="0" style="stop-color:#40447E"/>
					<stop  offset="0.9964" style="stop-color:#3C3B6B"/>
				</linearGradient>
				<path style="fill:url(#SVGID_00000000198581993509775070000000422594697457512116_);" d="M2294.097,1944.499L772.69,2063.565
					c-27.225,2.13-49.36-20.509-49.36-50.572V808.525c0-30.064,22.135-54.436,49.36-54.436h1521.407
					c22.429,0,40.564,22.031,40.564,49.209v1088.817C2334.661,1919.292,2316.527,1942.743,2294.097,1944.499z"/>
				
					<linearGradient id="SVGID_00000009588126237092899210000009700891206861492105_" gradientUnits="userSpaceOnUse" x1="1858.6664" y1="1086.8202" x2="953.3262" y2="1822.7302">
					<stop  offset="0" style="stop-color:#FF9085"/>
					<stop  offset="1" style="stop-color:#FB6FBB"/>
				</linearGradient>
				<path style="fill:url(#SVGID_00000009588126237092899210000009700891206861492105_);" d="M2246.701,1867.735L829.669,1971.161
					c-22.155,1.617-40.159-16.965-40.159-41.508V875.139c0-24.543,18.004-44.522,40.159-44.623l1417.032-6.494
					c18.502-0.085,33.469,17.968,33.469,40.323v960.473C2280.17,1847.171,2265.204,1866.385,2246.701,1867.735z"/>
				<path style="fill:#FFFFFF;" d="M1587.125,787.034c0,11.191-7.831,20.29-17.501,20.323c-9.682,0.033-17.539-9.034-17.539-20.25
					c0-11.217,7.857-20.316,17.539-20.324C1579.295,766.776,1587.125,775.842,1587.125,787.034z"/>
				<path style="opacity:0.48;fill:#FFFFFF;" d="M1927.538,1614.155c-117.287-69.885-209.509,18.667-298.51-68.704
					c-53.959-52.97-27.467-92.471-93.862-171.628c-73.537-87.674-121.414-58.202-195.317-137.109
					c-93.446-99.773-46.71-177.398-127.202-249.032c-97.648-86.902-202.956-6.469-295.911-89.81
					c-40.092-35.945-62.089-88.204-73.577-143.782H752.21c-15.938,0-28.88,14.305-28.88,31.952v1248.536
					c0,17.646,12.943,30.935,28.88,29.682l1550.564-121.886c7.609-0.598,14.357-5.518,18.687-12.651
					c-113.505-4.581-183.238-46.72-227.813-90.281C2006.447,1754.221,2021.572,1670.184,1927.538,1614.155z"/>
			</g>
			
				<linearGradient id="SVGID_00000169555805809233146160000001963568238727406232_" gradientUnits="userSpaceOnUse" x1="723.3295" y1="2068.7739" x2="3004.0227" y2="2068.7739">
				<stop  offset="0" style="stop-color:#40447E"/>
				<stop  offset="0.9964" style="stop-color:#3C3B6B"/>
			</linearGradient>
			<path style="fill:url(#SVGID_00000169555805809233146160000001963568238727406232_);" d="M2256.135,1939.099L723.33,2064.428
				l668.332,132.82c7.654,1.521,15.415,1.925,23.138,1.203l1589.224-148.445l-723.505-110.056
				C2272.426,1938.719,2264.266,1938.434,2256.135,1939.099z"/>
			
				<linearGradient id="SVGID_00000124856504350290673230000002441632153122678953_" gradientUnits="userSpaceOnUse" x1="946.9898" y1="2048.0796" x2="2618.0393" y2="2048.0796">
				<stop  offset="0" style="stop-color:#40447E"/>
				<stop  offset="0.9964" style="stop-color:#3C3B6B"/>
			</linearGradient>
			<polygon style="opacity:0.3;fill:url(#SVGID_00000124856504350290673230000002441632153122678953_);" points="946.99,2067.58 
				2223.096,1961.685 2618.039,2021.277 1352.926,2134.475 			"/>
			<g>
				<polygon style="fill:#FFFFFF;" points="2167.667,1230.703 1885.583,1085.007 1589.672,932.167 958.662,1258.087 
					960.672,1259.035 960.672,1270.605 1590.286,1567.408 2167.104,1242.226 2167.104,1231.18 2166.807,1231.187 				"/>
				<path style="fill:#FFFFFF;" d="M1956.077,1398.344l-366.405,207.182l-402.825-188.347v272.507
					c0,44.665,34.007,82.004,78.487,86.063c72.071,6.576,186.923,13.073,315.314,5.158c124.993-7.705,234.458-27.394,302.442-42.028
					c42.603-9.17,72.988-46.849,72.988-90.427V1398.344z"/>
				<g>
					<path style="fill:#FFFFFF;" d="M2167.321,1655.483c-4.062,0.223-3.71-3.392-3.71-7.826V1256.21
						c0-8.855-8.237-14.469-16.365-14.278l-553.297,12.983c-4.423,0.104-8.011-3.638-8.011-8.267c0-4.629,3.588-8.535,8.011-8.634
						l553.297-12.303c16.248-0.362,23.783,12.616,23.783,30.317v391.225C2171.029,1651.686,2171.381,1655.26,2167.321,1655.483z"/>
				</g>
				
					<linearGradient id="SVGID_00000117653405592032689870000003346326080882397841_" gradientUnits="userSpaceOnUse" x1="1969.5295" y1="1168.2479" x2="1086.2156" y2="1886.2539">
					<stop  offset="0" style="stop-color:#FF9085"/>
					<stop  offset="1" style="stop-color:#FB6FBB"/>
				</linearGradient>
				<path style="fill:url(#SVGID_00000117653405592032689870000003346326080882397841_);" d="M2179.076,1235.54
					c-3.758-7.272,1.497-10.569-8.04-10.357l-577.088,12.833c-4.423,0.099-8.011,4.004-8.011,8.633c0,4.628,3.589,8.37,8.011,8.267
					l553.297-12.983c4.511-0.106,9.049,1.581,12.2,4.612l7.658-4.318L2179.076,1235.54z"/>
				<path style="fill:#FFFFFF;" d="M2184.931,1573.221l-7.224-11.791c-2.389-4.492-7.358-7.071-12.21-6.756
					c-4.855,0.315-9.516,3.51-11.775,8.314l-6.379,12.972c-1.473,3.134-2.529,6.591-2.529,10.049v106.642
					c0,2.29,11.114,3.503,22.292,2.855c11.159-0.646,22.216-3.137,22.216-5.419v-106.582
					C2189.321,1579.825,2186.591,1576.342,2184.931,1573.221z"/>
			</g>
		</g>
		<g>
			
				<linearGradient id="SVGID_00000083797627578347683290000015735830073555893632_" gradientUnits="userSpaceOnUse" x1="2803.075" y1="2668.3511" x2="2386.1926" y2="3234.5635">
				<stop  offset="0" style="stop-color:#FF9085"/>
				<stop  offset="1" style="stop-color:#FB6FBB"/>
			</linearGradient>
			<path style="fill:url(#SVGID_00000083797627578347683290000015735830073555893632_);" d="M2752.024,2590.177
				c-33.976,29.813-85.218,27.387-116.807-4.944c-39.378-40.304-113.243-67.653-245.616,16.124
				c-236.44,149.639,24.889,572.9,174.219,585.266c149.331,12.366,199.108-24.81,273.773,0
				c74.665,24.81,180.441-141.231,223.996-291.54s-68.443-328.741-180.442-348.412
				C2826.026,2536.989,2784.468,2561.708,2752.024,2590.177z"/>
			
				<linearGradient id="SVGID_00000033357640889306446090000000034836449709124279_" gradientUnits="userSpaceOnUse" x1="2803.075" y1="2668.3506" x2="2386.1917" y2="3234.5647">
				<stop  offset="0" style="stop-color:#FF9085"/>
				<stop  offset="1" style="stop-color:#FB6FBB"/>
			</linearGradient>
			<path style="opacity:0.3;fill:url(#SVGID_00000033357640889306446090000000034836449709124279_);" d="M2947.188,3043.528
				c0,0,0,0-56.86,35.159c-56.862,35.159-80.709-101.521-185.261-187.383c-104.552-85.862-309.992-24.052-298.985-171.65
				c5.487-73.583,42.429-127.802,78.099-163.68c-27.608,8.364-58.972,22.849-94.578,45.382
				c-236.441,149.64,24.888,572.9,174.218,585.266c149.332,12.366,199.108-24.81,273.774,0
				c64.105,21.3,151.139-98.078,202.041-227.398L2947.188,3043.528z"/>
			
				<linearGradient id="SVGID_00000066507753652874963360000003446899111034483853_" gradientUnits="userSpaceOnUse" x1="2531.0989" y1="2228.9783" x2="2643.0862" y2="2761.9534">
				<stop  offset="0" style="stop-color:#A1F094"/>
				<stop  offset="1" style="stop-color:#4FC3BA"/>
			</linearGradient>
			<path style="fill:url(#SVGID_00000066507753652874963360000003446899111034483853_);" d="M2713.599,2615.446
				c0,0,106.881-174.091-73.542-223.863c-180.423-49.772-257.155-116.55-257.155-116.55s45.624,145.098,78.806,254.217
				S2654.416,2663.033,2713.599,2615.446z"/>
			
				<linearGradient id="SVGID_00000176740595604149822380000005463048874380000407_" gradientUnits="userSpaceOnUse" x1="2820.6555" y1="2360.7573" x2="2605.9187" y2="2652.4146">
				<stop  offset="0" style="stop-color:#311944"/>
				<stop  offset="1" style="stop-color:#6B3976"/>
			</linearGradient>
			<path style="fill:url(#SVGID_00000176740595604149822380000005463048874380000407_);" d="M2762.835,2412.527
				c-31.108,3.592-18.665-45.068-48.49-12.596c-25.959,28.263-30.54,183.939-31.292,223.828c-0.099,5.193,3.955,9.503,9.144,9.741
				l0,0c5.468,0.251,10.033-4.118,10.007-9.593c-0.391-85.769,92.132-182.566,102.108-202.239
				C2814.681,2401.221,2793.943,2408.936,2762.835,2412.527z"/>
			
				<linearGradient id="SVGID_00000107579434220224781950000002677975985170303655_" gradientUnits="userSpaceOnUse" x1="2492.9871" y1="2236.9866" x2="2604.9739" y2="2769.9595">
				<stop  offset="0" style="stop-color:#38E8C7"/>
				<stop  offset="1" style="stop-color:#425F63"/>
			</linearGradient>
			<path style="opacity:0.3;fill:url(#SVGID_00000107579434220224781950000002677975985170303655_);" d="M2636.332,2514.197
				c-14.118-78.195-74.658-63.784-197.014-169.55c-19.716-17.042-36.13-33.304-49.822-48.603
				c13.826,44.12,46.696,149.296,72.213,233.207c29.587,97.3,159.626,127.446,229.412,99.098
				C2668.059,2607.944,2646.964,2573.09,2636.332,2514.197z"/>
		</g>
	</g>
</g>
</svg>
