<?xml version="1.0" encoding="UTF-8"?><svg id="a" xmlns="http://www.w3.org/2000/svg" viewBox="0 0 297.44 297.44"><defs><style>.b{fill:#e41e29;}.c,.d{fill:#fff;}.e{fill:#272f70;}.d{stroke:#000;stroke-miterlimit:10;stroke-width:.25px;}</style></defs><rect class="d" x=".12" y=".12" width="297.19" height="297.19"/><path class="e" d="M127.2,146.47c1.4,1.04,2.52,2.22,3.26,3.73,1.48,3.03,1.38,6.11,.31,9.24-2.13,6.24-8,8.5-12.25,8.49-7.75-.02-15.5,0-23.25,0-.2,0-.39,0-.55,0l-1.36,.02c2.74-13.35,5.47-26.7,8.21-40.04,3.54-.01,7.11,0,10.71,.01,3.61,.02,7.18,.06,10.72,.12,.48-.01,5.49-.07,8.01,3.65,1.54,2.29,1.36,4.82,1.23,6.38-.17,2.12-.95,4.2-2.32,6.2-.66,.95-1.63,1.61-2.71,2.2Z"/><path class="e" d="M86.81,167.89c-4.48-.06-8.97-.12-13.45-.17,2.75-13.24,5.49-26.48,8.24-39.72,4.21-.11,8.41-.22,12.62-.33-2.47,13.41-4.93,26.78-7.41,40.23Z"/><path class="b" d="M194.51,126.54h1.16v41.21h-1.16v-41.21Z"/><path d="M211.3,157.05c-.46,1.51-.92,3.02-1.38,4.56-.4,.1-.78,.05-1.22,.03-.39-1.49-.78-2.97-1.17-4.44l-.13,.02c-.07,1.49-.14,2.98-.22,4.49-.47,.12-.89,.07-1.41,.05,.14-2.29,.27-4.53,.41-6.81h2.05c.43,1.47,.85,2.9,1.18,4.55,.47-1.61,.89-3.06,1.31-4.51,.67-.16,1.3-.01,2.03-.09,.12,2.29,.24,4.53,.37,6.82-.51,.11-.96,.07-1.57,.03v-4.67l-.23-.02Z"/><path d="M225.78,154.97c.59-.1,1.17-.05,1.77-.02,.76,1.39,1.57,2.75,2.32,4.15v-4.09c.45-.17,.89-.05,1.36-.1v6.84h-1.57c-.82-1.45-1.64-2.97-2.49-4.51v4.49c-.49,.11-.92,.06-1.4,.03v-6.79Z"/><path d="M236.94,155.01c1.11-.18,2.16-.24,3.21-.05,1.63,.3,2.52,1.27,2.64,2.87,.14,1.84-.61,3.17-2.13,3.7-1.21,.43-2.45,.31-3.72,.22v-6.75Z"/><path d="M247.87,161.46c.14-.46,.12-.86,.36-1.24,.52,.13,1.02,.37,1.56,.36,.46-.01,.93-.06,1.05-.6,.12-.52-.3-.72-.69-.9-.4-.18-.82-.33-1.2-.55-.77-.46-1.13-1.15-.96-2.05,.15-.85,.72-1.32,1.51-1.54,.87-.24,1.74-.17,2.6,.17,.04,.46-.12,.83-.28,1.26-.56-.14-1.1-.32-1.67-.22-.31,.06-.57,.18-.63,.53-.05,.31,.15,.52,.39,.65,.46,.23,.95,.4,1.4,.65,.75,.4,1.17,1.01,1.12,1.9-.06,.85-.48,1.44-1.25,1.75-1.1,.45-2.2,.34-3.32-.16Z"/><path d="M225.01,138.33c.38-1.38,.76-2.76,1.12-4.1,.29-.22,.56-.15,.88-.08l1,4.09,.14,.02,1.14-4.09c.24-.09,.45-.1,.78-.01-.54,1.81-1.08,3.6-1.61,5.34-.29,.16-.53,.09-.82,.06-.34-1.4-.69-2.8-1.08-4.4l-1.24,4.33c-.24,.17-.48,.12-.83,.07-.46-1.75-.94-3.54-1.41-5.32,.26-.22,.49-.16,.78-.06,.33,1.36,.67,2.76,1.01,4.15h.14Z"/><path d="M257.07,134.17c.32-.15,.55-.04,.84-.05,.91,1.35,1.82,2.7,2.83,4.19v-4.1c.25-.16,.43-.15,.67-.05v5.34c-.21,.18-.44,.09-.75,.05-.91-1.35-1.84-2.74-2.77-4.12l-.13,.04v3.91c-.24,.3-.45,.2-.69,.18v-5.39Z"/><path d="M216.3,133.99c1.62,0,2.73,1.16,2.72,2.83-.01,1.7-1.14,2.85-2.8,2.85-1.57,0-2.69-1.16-2.68-2.79,0-1.71,1.14-2.89,2.76-2.89Z"/><path d="M246.95,139.53c-.32,.11-.53,.09-.77-.02-.43-.97-.17-2.67-2.19-2.19v2.12c-.26,.22-.47,.18-.73,.11v-5.36c.55-.16,1.11-.17,1.67-.15,.76,.03,1.5,.19,1.79,1.02,.28,.82-.12,1.41-.81,1.91,.76,.69,.7,1.68,1.04,2.56Z"/><path d="M270.29,139.29c-1.64,.64-3.05,.39-3.79-.63-.71-.99-.66-2.69,.11-3.67,.76-.95,2.22-1.23,3.52-.66,0,.08,0,.18-.02,.26-.02,.09-.08,.17-.12,.24-1.61-.3-2.6-.03-3.03,.83-.45,.9-.31,2.11,.32,2.75,.64,.64,1.53,.78,2.41,.32v-2.04l.61-.03v2.62Z"/><path d="M220.07,161.76h-1.46v-6.77c.49-.13,.95-.05,1.46-.07v6.84Z"/><path d="M237.22,136.34c.2,.26,.18,.42,.1,.65h-2.15c-.16,.65-.1,1.25-.04,1.95h2.41c.16,.27,.14,.42,0,.62h-3.17v-5.41h3.07c.17,.14,.07,.33,.05,.57h-2.3c-.22,.55-.12,1.05-.09,1.62h2.1Z"/><path d="M216.3,149.75c-.24,.13-.43,.13-.65,.03v-4.96c.51-.23,1.03-.18,1.53-.16,.68,.03,1.35,.17,1.59,.93,.23,.74-.02,1.35-.73,1.8,.73,.65,.65,1.58,.96,2.37-.26,.15-.47,.13-.71,0-.38-.9-.11-2.47-1.98-2.07v2.06Z"/><path d="M209.93,147.21v2.34c-1.34,.63-2.93,.41-3.65-.49-.7-.88-.75-2.4-.1-3.31,.74-1.04,2.15-1.39,3.5-.86,.16,.19,.08,.36-.09,.55-1.13-.34-2.23-.36-2.95,.81-.31,.52-.32,1.12-.13,1.71,.36,1.16,1.38,1.6,2.73,1.18,.16-.29,.07-.62,.08-.93,.01-.32,0-.64,0-.97,.18-.16,.38-.14,.61-.03Z"/><path d="M206.46,137.46v2.05c-.26,.12-.46,.14-.7,0v-5.33c.76-.19,1.55-.24,2.34-.02,.8,.22,1.22,.79,1.22,1.54,0,.79-.46,1.39-1.24,1.63-.25,.08-.53,.11-.79,.13-.24,.02-.49,0-.82,0Z"/><path d="M234.01,144.72h.84c.6,1.67,1.2,3.36,1.8,5.04-.29,.17-.5,.05-.73,.06l-.57-1.56h-1.88l-.52,1.52c-.23,.1-.44,.11-.72,0,.59-1.68,1.18-3.36,1.77-5.06Z"/><path d="M227.06,144.74c.17,.19,.08,.34,0,.55h-2.06v1.48c.61,.35,1.51-.24,2.04,.47-.66,.34-1.33,.13-2.02,.28v1.72h2.08c.25,.22,.2,.38,.11,.58h-2.88v-5.08h2.74Z"/><path d="M242.28,149.79v-4.51h-1.46c-.17-.2-.18-.36-.03-.56,1.24,0,2.5,0,3.77,0,.15,.15,.08,.32,.07,.55h-1.59v4.41c-.24,.25-.45,.16-.76,.11Z"/><path d="M251.45,139.55v-5.33c.22-.2,.43-.12,.67-.08v5.33c-.21,.22-.42,.11-.67,.08Z"/><path class="c" d="M238.47,160.52v-4.36c.89-.19,1.68-.07,2.29,.62,.56,.63,.59,2.04,.1,2.86-.48,.8-1.19,1.07-2.39,.88Z"/><path class="c" d="M218.21,136.8c0,1.34-.75,2.24-1.89,2.25-1.18,.01-1.98-.87-1.98-2.17,0-1.35,.81-2.29,1.98-2.27,1.1,.01,1.89,.93,1.9,2.19Z"/><path class="c" d="M244.01,136.61c-.02-.65-.09-1.25,.02-1.9,.66-.12,1.31-.2,1.82,.35,.3,.32,.29,.75,.03,1.08-.48,.63-1.17,.55-1.87,.47Z"/><path class="c" d="M216.32,147.07v-1.78c.58-.07,1.17-.22,1.64,.28,.28,.3,.33,.68,.1,1.02-.41,.62-1.04,.52-1.74,.48Z"/><path class="c" d="M206.52,136.81c-.12-.72-.05-1.37-.06-2.08,.69-.13,1.34-.21,1.86,.35,.34,.37,.32,.82,.06,1.23-.46,.72-1.18,.51-1.86,.51Z"/><path class="c" d="M233.66,147.63l.74-2.19,.79,2.12c-.51,.15-.98,.05-1.53,.07Z"/><polygon class="e" points="139.44 127.82 132.25 167.58 142.43 167.63 147.04 135.15 148.12 147.91 149 158.34 149.79 167.73 158.95 167.73 172.8 137.86 166.64 167.71 177.07 167.71 185.05 127.58 168.52 127.82 157.98 149.35 155.3 127.56 139.44 127.82"/><path class="c" d="M110.6,136.12c-.34,2.32-.68,4.63-1.02,6.95,0,0,4.39,1.15,8.41-.3,0,0,3.91-3.01,1.64-5.61-.24-.2-.64-.5-1.19-.76-.87-.42-1.83-.6-4.74-.49-.79,.03-1.85,.09-3.1,.2"/><path class="c" d="M107.86,151.63c-.37,2.49-.73,4.98-1.1,7.48,0,0,4.72,1.24,9.05-.32,0,0,4.2-3.24,1.77-6.04-.26-.22-.69-.54-1.28-.82-.94-.45-1.97-.65-5.1-.52-.85,.03-1.99,.1-3.33,.22Z"/><polygon class="e" points="40.31 127.3 32.44 167.11 44.63 167.19 48.19 146.38 57.34 167.23 67.53 167.02 74.67 127.2 63.68 127.3 58.97 150.22 51.82 127.46 40.31 127.3"/><g><path class="e" d="M28.86,123.78c.95-.83,1.84-1.67,2.81-2.4,3.16-2.54,7.12-4.58,10.64-6.51,2.12,.41,5.23,1.36,7.29,2.99-1.73-1.65-4.05-2.73-6.29-3.4-.31-.06-.69-.25-1.01-.21-5.82,.04-11.61,3.9-14.35,9.5l.06,.39h-.02s.02,.07,.03,.1c.01,.16,.06,.27,.12,.35,.28,1.11-.21,2.34-1,3.09,.82-.64,1.38-1.72,1.34-2.81,1.04,.75,2.23,1.53,2.59,2.94-.42-1.4-1.08-2.89-2.11-3.92-.03-.04-.07-.08-.11-.11Z"/><path class="e" d="M42.76,118.47c-.24-.9-.33-1.84-.45-2.77h-.31c-.11,.79-.16,1.6-.35,2.38-.07,.2-.12,.39-.1,.59,0,.07,.06,.13,.3,.2h.61c.35-.1,.3-.16,.3-.4Z"/><path class="e" d="M45.82,119.33l.14,.65c.06,.13,.09,.12,.13,.11,.83-.28,2.08-.89,2.91-1.23-.87,.1-2.25,.15-3.1,.31-.03,0-.06,.02-.07,.16Z"/><path class="e" d="M31.92,123.18c-.21,.11-.71,.17-.93,.23l-1.24,.32c.41,.11,1.46,.39,1.86,.45,.2,.03,.41,.19,.62,.08v-1.08c-.1-.04-.21-.04-.31-.01Z"/><path class="e" d="M34.07,123.5l.45,.45c3.84-4.52,7.38-3.14,7.53-3.08l.22-.62c-.17-.07-4.07-1.61-8.19,3.25Z"/><path class="e" d="M33.05,125.3c1.19,1.55,2.08,3.42,2.58,5.46-.04-2.01-.77-4.23-1.73-6.1l-.84,.64Z"/><path class="e" d="M44.02,120.46l-.41,.49s1.39,1.42,1.98,4.44l.59-.14c-.63-3.24-2.1-4.73-2.16-4.79Z"/><path class="e" d="M38.56,128.22c1.66-1.63,3.86-2.31,6.09-2.62-2.31-.31-4.81,.27-6.65,1.91-.65,.57-1.14,1.33-1.57,2.12-.14,.63,.19,1.27,.73,1.48,.51,.18,1,.11,1.5,0,1.53-.43,2.84-1.26,4.15-2.16,.64-.44,1.24-.94,1.84-1.44-1.38,.64-2.72,1.36-4.11,1.96-1,.37-2.02,.93-3.06,.71-.11-.06-.15-.13-.16-.26,.34-.63,.73-1.23,1.24-1.72Z"/></g></svg>