<svg xmlns="http://www.w3.org/2000/svg" viewBox="0 0 612 208.1"><defs><style>.cls-1{fill:#272f70;}.cls-2{fill:#fff;}</style></defs><g id="Layer_2" data-name="Layer 2"><g id="Layer_1-2" data-name="Layer 1"><path class="cls-1" d="M387.78,124.88c5.43,4,9.78,8.6,12.63,14.46,5.73,11.75,5.36,23.69,1.21,35.8-8.26,24.17-31,32.94-47.47,32.91-30-.07-60.08,0-90.12,0h-2.14l-5.27.07q15.9-77.61,31.81-155.2,20.57-.09,41.5.05t41.55.47c1.86-.05,21.3-.26,31,14.16,6,8.87,5.25,18.69,4.76,24.75a49.27,49.27,0,0,1-9,24C395.72,120.06,392,122.6,387.78,124.88Z"/><path class="cls-1" d="M231.24,207.92l-52.12-.68q16-77,31.93-153.94L260,52C250.38,104,240.84,155.82,231.24,207.92Z"/><polygon class="cls-1" points="435.21 52.63 407.33 206.73 446.78 206.92 464.65 81.02 468.83 130.48 472.25 170.89 475.32 207.28 510.81 207.28 564.5 91.53 540.63 207.21 581.07 207.21 612 51.69 547.93 52.63 507.08 136.06 496.68 51.62 435.21 52.63"/><path class="cls-2" d="M323.43,84.8q-2,13.47-3.95,26.93s17,4.46,32.58-1.15c0,0,15.14-11.67,6.36-21.74a22.17,22.17,0,0,0-4.61-2.94c-3.38-1.62-7.09-2.33-18.38-1.89-3.06.12-7.15.35-12,.79"/><path class="cls-2" d="M312.81,144.89q-2.13,14.48-4.25,29s18.3,4.8,35.06-1.23c0,0,16.29-12.57,6.85-23.4a24.94,24.94,0,0,0-5-3.17c-3.64-1.74-7.63-2.5-19.79-2C322.43,144.17,318,144.41,312.81,144.89Z"/><polygon class="cls-1" points="51.01 50.59 20.5 204.89 67.75 205.21 81.54 124.57 117 205.35 156.49 204.54 184.16 50.22 141.59 50.59 123.32 139.44 95.59 51.21 51.01 50.59"/><path class="cls-1" d="M6.63,37c3.67-3.23,7.11-6.48,10.89-9.3C29.78,17.8,45.12,9.9,58.78,2.42,67,4,79.06,7.69,87,14,80.31,7.59,71.32,3.42,62.63.82,61.41.6,60-.13,58.71,0,36.16.19,13.72,15.14,3.1,36.85c0,0,.16,1,.24,1.52l-.07,0c.06.12.08.25.13.37a2.43,2.43,0,0,0,.48,1.36C5,44.42,3.05,49.19,0,52.09A13.58,13.58,0,0,0,5.2,41.18c4,2.93,8.65,6,10,11.39-1.61-5.44-4.17-11.2-8.17-15.19A5.66,5.66,0,0,0,6.63,37Z"/><path class="cls-1" d="M60.5,16.36A78.93,78.93,0,0,1,58.77,5.61h-1.2c-.43,3.08-.64,6.19-1.36,9.21a5.42,5.42,0,0,0-.37,2.31c0,.25.23.51,1.15.77h2.36C60.7,17.49,60.52,17.28,60.5,16.36Z"/><path class="cls-1" d="M72.34,19.71l.53,2.51c.24.49.37.48.49.43,3.23-1.08,8.06-3.45,11.28-4.75-3.39.38-8.72.6-12,1.2C72.47,19.11,72.35,19.16,72.34,19.71Z"/><path class="cls-1" d="M18.47,34.62a22.39,22.39,0,0,1-3.61.89L10,36.76c1.57.42,5.67,1.5,7.22,1.76.79.1,1.58.72,2.41.33V34.68A1.9,1.9,0,0,0,18.47,34.62Z"/><path class="cls-1" d="M26.83,35.88l1.72,1.76c14.87-17.52,28.62-12.17,29.2-11.93l.84-2.41C58,23,42.82,17,26.83,35.88Z"/><path class="cls-1" d="M22.85,42.83A57.25,57.25,0,0,1,32.83,64c-.15-7.79-3-16.4-6.71-23.63Z"/><path class="cls-1" d="M65.38,24.07,63.79,26c.05.05,5.38,5.52,7.66,17.2l2.31-.54C71.3,30.09,65.62,24.31,65.38,24.07Z"/><path class="cls-1" d="M44.2,54.16c6.45-6.31,15-9,23.59-10.15-9-1.19-18.65,1-25.76,7.42a29.17,29.17,0,0,0-6.09,8.21,5,5,0,0,0,2.84,5.75,10.31,10.31,0,0,0,5.8,0c5.91-1.66,11-4.86,16.07-8.35,2.48-1.71,4.82-3.63,7.14-5.57C62.46,54,57.25,56.76,51.88,59.07,48,60.49,44,62.68,40,61.83a1.09,1.09,0,0,1-.63-1A26.8,26.8,0,0,1,44.2,54.16Z"/></g></g></svg>